<svg width="100" height="100" viewBox="0 0 100 100" xmlns="http://www.w3.org/2000/svg">
    <defs>
        <linearGradient id="grad1" x1="0%" y1="0%" x2="100%" y2="100%">
            <stop offset="0%" style="stop-color:#3b82f6;stop-opacity:1" />
            <stop offset="100%" style="stop-color:#8b5cf6;stop-opacity:1" />
        </linearGradient>
    </defs>
    <path d="M50 10 C 70 10, 90 30, 90 50 C 90 70, 70 90, 50 90 C 30 90, 10 70, 10 50 C 10 30, 30 10, 50 10 Z" fill="none" stroke="url(#grad1)" stroke-width="5"/>
    <circle cx="50" cy="50" r="8" fill="url(#grad1)"/>
    <path d="M50 25 L50 10" stroke="#3b82f6" stroke-width="4" stroke-linecap="round"/>
    <path d="M75 50 L90 50" stroke="#8b5cf6" stroke-width="4" stroke-linecap="round"/>
    <path d="M50 75 L50 90" stroke="#6366f1" stroke-width="4" stroke-linecap="round"/>
    <path d="M25 50 L10 50" stroke="#3b82f6" stroke-width="4" stroke-linecap="round"/>
    <path d="M30 30 L18 18" stroke="#3b82f6" stroke-width="4" stroke-linecap="round"/>
    <path d="M70 30 L82 18" stroke="#6366f1" stroke-width="4" stroke-linecap="round"/>
    <path d="M30 70 L18 82" stroke="#3b82f6" stroke-width="4" stroke-linecap="round"/>
    <path d="M70 70 L82 82" stroke="#8b5cf6" stroke-width="4" stroke-linecap="round"/>
</svg>
